<svg width="38" height="38" viewBox="0 0 38 38" fill="none" xmlns="http://www.w3.org/2000/svg">
<path d="M25.2264 16.0598V24.5417H23.0668V16.0598H25.2264Z" fill="#BD96ED"/>
<path d="M22.9448 13.6911C22.9448 13.0293 23.4325 12.5242 24.1466 12.5242C24.8781 12.5242 25.3309 13.0293 25.3483 13.6911C25.3483 14.3356 24.8781 14.8406 24.1292 14.8406C23.4151 14.8406 22.9448 14.3356 22.9448 13.6911Z" fill="#BD96ED"/>
<path fill-rule="evenodd" clip-rule="evenodd" d="M20.0038 24.5416L18.9414 21.2151H15.2143L14.2041 24.5416H11.9922L15.7542 12.8029H18.4885L22.3028 24.5416H20.0038ZM16.4682 16.7041L15.5626 19.5953H18.5756L17.6525 16.7041C17.4693 16.1262 17.309 15.4913 17.162 14.91C17.1275 14.7731 17.0936 14.6392 17.0604 14.5097H17.0255C16.966 14.7423 16.9063 14.9913 16.8452 15.2462C16.728 15.7353 16.6056 16.2462 16.4682 16.7041Z" fill="#BD96ED"/>
<path fill-rule="evenodd" clip-rule="evenodd" d="M27.3256 4.48566C21.8369 3.87221 16.1631 3.87221 10.6745 4.48566C7.48871 4.84172 4.91685 7.35132 4.54232 10.5537C3.88596 16.1655 3.88596 21.8346 4.54232 27.4464C4.91685 30.6487 7.48871 33.1585 10.6745 33.5144C16.1631 34.1279 21.8369 34.1279 27.3256 33.5144C30.5113 33.1585 33.0831 30.6487 33.4577 27.4464C34.114 21.8346 34.114 16.1655 33.4577 10.5537C33.0831 7.35132 30.5113 4.84172 27.3256 4.48566ZM10.9383 6.84597C16.2517 6.2521 21.7484 6.2521 27.0617 6.84597C29.1679 7.08134 30.8547 8.74323 31.0989 10.8296C31.7338 16.2581 31.7338 21.742 31.0989 27.1706C30.8547 29.2568 29.1679 30.9188 27.0617 31.1541C21.7484 31.748 16.2517 31.748 10.9383 31.1541C8.83226 30.9188 7.14524 29.2568 6.90123 27.1706C6.26631 21.742 6.26631 16.2581 6.90123 10.8296C7.14524 8.74323 8.83226 7.08134 10.9383 6.84597Z" fill="#BD96ED"/>
</svg>
