<svg width="24" height="28" viewBox="0 0 24 28" fill="none" xmlns="http://www.w3.org/2000/svg">
<path d="M16.3005 0H5.10524C3.46971 0 2.13851 1.33003 2.13851 2.96219V13.9157H1.84869C1.18858 13.9157 0.653351 14.4496 0.653351 15.1092V22.3481C0.653351 23.0077 1.18858 23.5418 1.84869 23.5418H2.13851V24.8691C2.13851 26.5031 3.46977 27.8313 5.10524 27.8313H20.3808C22.0153 27.8313 23.3466 26.503 23.3466 24.8691V7.01059L16.3005 0ZM6.36297 20.5041C6.70609 20.5041 7.0865 20.4295 7.3107 20.3404L7.48188 21.2264C7.27323 21.3311 6.8031 21.4431 6.19172 21.4431C4.45334 21.4431 3.55811 20.3631 3.55811 18.933C3.55811 17.2199 4.78172 16.2665 6.30342 16.2665C6.89288 16.2665 7.34029 16.3856 7.5416 16.4894L7.3107 17.3909C7.07921 17.2936 6.75852 17.2045 6.35574 17.2045C5.45276 17.2045 4.75166 17.7485 4.75166 18.8657C4.75166 19.8709 5.34846 20.5041 6.36297 20.5041ZM20.3807 26.0172H5.10524C4.47196 26.0172 3.95621 25.5023 3.95621 24.8691V23.5418H18.1961C18.8564 23.5418 19.3917 23.0077 19.3917 22.3481V15.1092C19.3917 14.4496 18.8564 13.9157 18.1961 13.9157H3.95621V2.96219C3.95621 2.33074 4.47196 1.81584 5.10524 1.81584L15.6209 1.80493V5.68593C15.6209 6.81946 16.542 7.74017 17.6782 7.74017L21.4859 7.72932L21.5287 24.8691C21.5287 25.5023 21.0139 26.0172 20.3807 26.0172ZM9.48377 19.2605C8.64814 18.9703 8.10337 18.5082 8.10337 17.7785C8.10337 16.9214 8.81944 16.2664 10.0058 16.2664C10.5725 16.2664 10.9908 16.3856 11.2887 16.5194L11.0354 17.4355C10.8341 17.3391 10.4759 17.1971 9.98345 17.1971C9.491 17.1971 9.25229 17.421 9.25229 17.6812C9.25229 18.0014 9.53563 18.1434 10.1848 18.3889C11.0728 18.7165 11.4905 19.1786 11.4905 19.8865C11.4905 20.7279 10.8413 21.4431 9.46134 21.4431C8.88685 21.4431 8.31971 21.2938 8.03636 21.1373L8.26773 20.1993C8.5735 20.3559 9.04364 20.5114 9.52834 20.5114C10.0505 20.5114 10.3265 20.2958 10.3265 19.9682C10.3266 19.6553 10.0879 19.4761 9.48377 19.2605ZM13.5143 19.2605C12.6788 18.9703 12.1339 18.5082 12.1339 17.7785C12.1339 16.9214 12.85 16.2664 14.0363 16.2664C14.6036 16.2664 15.0208 16.3856 15.3196 16.5194L15.066 17.4355C14.8645 17.3391 14.5065 17.1971 14.014 17.1971C13.5215 17.1971 13.2828 17.421 13.2828 17.6812C13.2828 18.0014 13.5662 18.1434 14.2154 18.3889C15.1033 18.7165 15.5212 19.1786 15.5212 19.8865C15.5212 20.7279 14.872 21.4431 13.492 21.4431C12.9175 21.4431 12.3503 21.2938 12.0669 21.1373L12.2984 20.1993C12.6041 20.3559 13.0742 20.5114 13.5589 20.5114C14.081 20.5114 14.3571 20.2958 14.3571 19.9682C14.3571 19.6553 14.1183 19.4761 13.5143 19.2605Z" fill="#BD96ED"/>
</svg>
