<svg width="35" height="35" viewBox="0 0 35 35" fill="none" xmlns="http://www.w3.org/2000/svg">
<path fill-rule="evenodd" clip-rule="evenodd" d="M16.3335 4.78328H12.8918C10.991 4.78328 9.45012 6.32417 9.45012 8.22495C9.45012 10.1257 10.991 11.6666 12.8918 11.6666H16.3335V4.78328ZM16.3335 2.44995H18.6668H22.1085C25.298 2.44995 27.8833 5.03549 27.8833 8.22495C27.8833 10.1071 26.9831 11.779 25.5894 12.8333C26.9831 13.8876 27.8833 15.5595 27.8833 17.4416C27.8833 20.6311 25.298 23.2166 22.1085 23.2166C20.8188 23.2166 19.628 22.7939 18.6668 22.0795V23.2166V26.6583C18.6668 29.8477 16.0812 32.4333 12.8918 32.4333C9.70233 32.4333 7.11679 29.8477 7.11679 26.6583C7.11679 24.776 8.01718 23.1043 9.41074 22.05C8.01718 20.9956 7.11679 19.3238 7.11679 17.4416C7.11679 15.5595 8.0172 13.8876 9.41078 12.8333C8.0172 11.779 7.11679 10.1071 7.11679 8.22495C7.11679 5.03549 9.70233 2.44995 12.8918 2.44995H16.3335ZM18.6668 4.78328V11.6666H22.1085C24.0093 11.6666 25.55 10.1257 25.55 8.22495C25.55 6.32417 24.0093 4.78328 22.1085 4.78328H18.6668ZM12.8918 20.8833H16.3335V17.4505V17.4416V17.4328V14H12.8918C10.991 14 9.45012 15.5409 9.45012 17.4416C9.45012 19.3379 10.9836 20.8759 12.8781 20.8833L12.8918 20.8833ZM9.45012 26.6583C9.45012 24.762 10.9836 23.224 12.8781 23.2166L12.8918 23.2166H16.3335V26.6583C16.3335 28.559 14.7926 30.1 12.8918 30.1C10.991 30.1 9.45012 28.559 9.45012 26.6583ZM18.6668 17.4348C18.6705 15.5372 20.21 14 22.1085 14C24.0093 14 25.55 15.5409 25.55 17.4416C25.55 19.3424 24.0093 20.8833 22.1085 20.8833C20.21 20.8833 18.6705 19.3461 18.6668 17.4485V17.4348Z" fill="#BD96ED"/>
</svg>
