<svg width="48" height="48" viewBox="0 0 48 48" fill="none" xmlns="http://www.w3.org/2000/svg">
<path d="M24 4C12.972 4 4 12.972 4 24C4 35.028 12.972 44 24 44C35.028 44 44 35.028 44 24C44 12.972 35.028 4 24 4ZM24 40C15.178 40 8 32.822 8 24C8 15.178 15.178 8 24 8C32.822 8 40 15.178 40 24C40 32.822 32.822 40 24 40Z" fill="#BD96ED"/>
<path d="M29.658 29.656C28.9269 30.3847 28.0635 30.9671 27.114 31.372C25.4046 32.0937 23.4976 32.199 21.7191 31.67C19.9406 31.141 18.4011 30.0106 17.364 28.472L14.048 30.71C14.9129 31.9863 16.0132 33.0859 17.29 33.95C18.5893 34.8286 20.0492 35.4424 21.586 35.756C23.1796 36.081 24.8224 36.081 26.416 35.756C27.9527 35.4419 29.4125 34.8282 30.712 33.95C31.338 33.526 31.936 33.034 32.484 32.488C33.028 31.946 33.524 31.346 33.952 30.71L30.636 28.472C30.3486 28.897 30.0211 29.2935 29.658 29.656Z" fill="#BD96ED"/>
<path d="M17 24C18.6569 24 20 22.6569 20 21C20 19.3431 18.6569 18 17 18C15.3431 18 14 19.3431 14 21C14 22.6569 15.3431 24 17 24Z" fill="#BD96ED"/>
<path d="M30.986 23.972C32.6351 23.972 33.972 22.6351 33.972 20.986C33.972 19.3369 32.6351 18 30.986 18C29.3369 18 28 19.3369 28 20.986C28 22.6351 29.3369 23.972 30.986 23.972Z" fill="#BD96ED"/>
</svg>
