<svg width="24" height="24" viewBox="0 0 24 24" fill="none" xmlns="http://www.w3.org/2000/svg">
<path d="M21.084 2.91404C19.906 1.73504 17.85 1.73504 16.672 2.91404L8.293 11.293C8.20005 11.3858 8.12632 11.496 8.07601 11.6173C8.0257 11.7387 7.9998 11.8687 7.9998 12C7.9998 12.1314 8.0257 12.2614 8.07601 12.3827C8.12632 12.504 8.20005 12.6142 8.293 12.707L11.293 15.707C11.3857 15.8002 11.4958 15.8742 11.6171 15.9246C11.7385 15.9751 11.8686 16.0011 12 16.0011C12.1314 16.0011 12.2615 15.9751 12.3829 15.9246C12.5042 15.8742 12.6143 15.8002 12.707 15.707L21.086 7.32804C21.6706 6.7422 21.9988 5.94826 21.9984 5.12062C21.998 4.29298 21.6691 3.49934 21.084 2.91404ZM19.672 5.91404L12 13.586L10.414 12L18.086 4.32804C18.2996 4.1238 18.5839 4.00999 18.8794 4.01036C19.1749 4.01073 19.4589 4.12526 19.672 4.33003C19.8813 4.54047 19.9988 4.82522 19.9988 5.12204C19.9988 5.41886 19.8813 5.7036 19.672 5.91404ZM8 15C6.735 14.366 4.5 15 4.5 17C4.5 18.197 5 19 3 20C3 20 6.25 22.25 8.5 20C9.774 18.726 9.994 16 8 15Z" fill="#BD96ED"/>
</svg>
