<svg width="38" height="38" viewBox="0 0 38 38" fill="none" xmlns="http://www.w3.org/2000/svg">
<path fill-rule="evenodd" clip-rule="evenodd" d="M14.401 24.5417H12.2762V12.9597C13.0425 12.8203 14.1049 12.7158 15.5505 12.7158C17.1181 12.7158 18.2676 13.0467 19.0165 13.6737C19.7132 14.2485 20.166 15.1716 20.166 16.2688C20.166 17.3834 19.8177 18.3065 19.1558 18.9335C18.3024 19.7869 16.9613 20.1875 15.446 20.1875C15.0454 20.1875 14.6797 20.1701 14.401 20.1178V24.5417ZM15.6376 14.353C15.0454 14.353 14.6274 14.4052 14.401 14.4575V18.4284C14.6623 18.4981 15.0106 18.5155 15.446 18.5155C17.0484 18.5155 18.0237 17.7318 18.0237 16.3558C18.0237 15.0497 17.1181 14.353 15.6376 14.353Z" fill="#BD96ED"/>
<path d="M22.9023 24.7332C21.8747 24.7332 20.9516 24.472 20.3246 24.1237L20.7426 22.5736C21.2303 22.8697 22.1534 23.1832 22.9197 23.1832C23.8602 23.1832 24.2782 22.8 24.2782 22.2427C24.2782 21.6679 23.9299 21.3718 22.8849 21.0061C21.2303 20.4313 20.5336 19.5257 20.5511 18.5329C20.5511 17.0351 21.7876 15.8682 23.7557 15.8682C24.6962 15.8682 25.5148 16.112 26.0025 16.3732L25.5845 17.8885C25.2187 17.6795 24.5395 17.4008 23.7906 17.4008C23.0242 17.4008 22.6062 17.7666 22.6062 18.2891C22.6062 18.829 23.0068 19.0902 24.0866 19.4734C25.6193 20.0307 26.3334 20.8145 26.3508 22.0685C26.3508 23.6012 25.1491 24.7332 22.9023 24.7332Z" fill="#BD96ED"/>
<path fill-rule="evenodd" clip-rule="evenodd" d="M27.3255 4.48566C21.8367 3.87221 16.1631 3.87221 10.6744 4.48566C7.48859 4.84172 4.91673 7.35132 4.54218 10.5537C3.88584 16.1655 3.88584 21.8346 4.54218 27.4464C4.91673 30.6487 7.48859 33.1585 10.6744 33.5144C16.1631 34.1279 21.8367 34.1279 27.3255 33.5144C30.5111 33.1585 33.0831 30.6487 33.4576 27.4464C34.114 21.8346 34.114 16.1655 33.4576 10.5537C33.0831 7.35132 30.5113 4.84172 27.3255 4.48566ZM10.9382 6.84597C16.2516 6.2521 21.7482 6.2521 27.0617 6.84597C29.1677 7.08134 30.8547 8.74323 31.0987 10.8296C31.7336 16.2581 31.7336 21.742 31.0987 27.1706C30.8547 29.2568 29.1677 30.9188 27.0617 31.1541C21.7482 31.748 16.2516 31.748 10.9382 31.1541C8.83214 30.9188 7.14512 29.2568 6.90111 27.1706C6.26619 21.742 6.26619 16.2581 6.90111 10.8296C7.14512 8.74323 8.83214 7.08134 10.9382 6.84597Z" fill="#BD96ED"/>
</svg>
