<svg width="24" height="24" viewBox="0 0 24 24" fill="none" xmlns="http://www.w3.org/2000/svg">
<path d="M19.003 8.004C20.1087 8.004 21.005 7.10767 21.005 6.002C21.005 4.89633 20.1087 4 19.003 4C17.8973 4 17.001 4.89633 17.001 6.002C17.001 7.10767 17.8973 8.004 19.003 8.004Z" fill="#BD96ED"/>
<path d="M18.875 13.219C18.308 13.672 17.897 14 16.997 14C16.098 14 15.709 13.689 15.121 13.219C14.441 12.676 13.596 12 11.994 12C10.393 12 9.549 12.676 8.87 13.219C8.282 13.689 7.895 14 6.995 14C6.097 14 5.709 13.689 5.122 13.22C4.443 12.676 3.6 12 2 12V14C2.897 14 3.285 14.311 3.872 14.78C4.551 15.324 5.395 16 6.995 16C8.595 16 9.441 15.324 10.12 14.78C10.707 14.31 11.096 14 11.994 14C12.894 14 13.305 14.328 13.872 14.781C14.551 15.324 15.396 16 16.997 16C18.599 16 19.444 15.324 20.124 14.781C20.712 14.311 21.101 14 22 14V12C20.399 12 19.554 12.676 18.875 13.219ZM16.997 19C16.098 19 15.709 18.689 15.121 18.219C14.441 17.676 13.596 17 11.994 17C10.393 17 9.549 17.676 8.87 18.219C8.282 18.689 7.895 19 6.995 19C6.097 19 5.709 18.689 5.122 18.22C4.443 17.676 3.6 17 2 17V19C2.897 19 3.285 19.311 3.872 19.78C4.551 20.324 5.395 21 6.995 21C8.595 21 9.441 20.324 10.12 19.78C10.707 19.31 11.096 19 11.994 19C12.894 19 13.305 19.328 13.872 19.781C14.551 20.324 15.396 21 16.997 21C18.599 21 19.444 20.324 20.124 19.781C20.712 19.311 21.101 19 22 19V17C20.399 17 19.554 17.676 18.875 18.219C18.308 18.672 17.897 19 16.997 19ZM11 5.41896L13.104 7.52296L11.047 10.093C11.333 10.037 11.643 9.99996 11.994 9.99996C13.596 9.99996 14.441 10.676 15.121 11.219C15.709 11.689 16.098 12 16.997 12C17.897 12 18.308 11.672 18.875 11.219C19.007 11.114 19.149 11.002 19.298 10.893L17.202 8.80296L17.207 8.79796L11.707 3.29796C11.6142 3.20502 11.504 3.13128 11.3827 3.08097C11.2614 3.03066 11.1313 3.00476 11 3.00476C10.8687 3.00476 10.7386 3.03066 10.6173 3.08097C10.496 3.13128 10.3858 3.20502 10.293 3.29796L6.293 7.29796L7.707 8.71196L11 5.41896Z" fill="#BD96ED"/>
</svg>
