<svg width="32" height="32" viewBox="0 0 32 32" fill="none" xmlns="http://www.w3.org/2000/svg">
<path d="M23 17H9.30001C6.00001 17 3.10001 19.5 3.00001 22.8C2.90001 26.2 5.60001 29 9.00001 29C11.6 29 13.8 27.3 14.7 25C14.9 24.4 15.4 24 16 24C16.6 24 17.1 24.4 17.3 25C18.2 27.6 20.9 29.4 23.9 29C26.5 28.6 28.6 26.4 28.9 23.8C29.4 20.1 26.6 17 23 17Z" stroke="#BD96ED" stroke-width="2" stroke-miterlimit="10" stroke-linecap="round" stroke-linejoin="round"/>
<path d="M9 21V25" stroke="#BD96ED" stroke-width="2" stroke-miterlimit="10" stroke-linecap="round" stroke-linejoin="round"/>
<path d="M7 23H11" stroke="#BD96ED" stroke-width="2" stroke-miterlimit="10" stroke-linecap="round" stroke-linejoin="round"/>
<path d="M15 13V12C15 10.9 15.9 10 17 10H19C20.1 10 21 9.1 21 8C21 6.9 20.1 6 19 6H17C15.9 6 15 5.1 15 4V2" stroke="#BD96ED" stroke-width="2" stroke-miterlimit="10" stroke-linecap="round" stroke-linejoin="round"/>
<path d="M13 13H17" stroke="#BD96ED" stroke-width="2" stroke-miterlimit="10" stroke-linecap="round" stroke-linejoin="round"/>
<circle cx="23" cy="21" r="1" fill="#BD96ED"/>
<circle cx="23" cy="25" r="1" fill="#BD96ED"/>
<circle cx="21" cy="23" r="1" fill="#BD96ED"/>
<circle cx="25" cy="23" r="1" fill="#BD96ED"/>
</svg>
