<svg width="29" height="29" viewBox="0 0 29 29" fill="none" xmlns="http://www.w3.org/2000/svg">
<path d="M23.8646 0.362488H5.13542C2.29583 0.362488 0 2.65832 0 5.4979V23.5021C0 26.3417 2.29583 28.6375 5.13542 28.6375H23.8646C26.7042 28.6375 29 26.3417 29 23.5021V5.4979C29 2.65832 26.7042 0.362488 23.8646 0.362488ZM27.7796 23.0308C27.7823 23.6071 27.6712 24.1783 27.4526 24.7116C27.234 25.2449 26.9123 25.7297 26.5059 26.1384C26.0995 26.547 25.6164 26.8714 25.0844 27.0929C24.5523 27.3144 23.9817 27.4287 23.4054 27.4292H5.59458C3.17792 27.4292 1.20833 25.4596 1.20833 23.0429V5.95707C1.20833 3.5404 3.17792 1.57082 5.59458 1.57082H23.3933C24.5566 1.57082 25.6723 2.03294 26.4949 2.85552C27.3175 3.67811 27.7796 4.79377 27.7796 5.95707V23.0308ZM11.4671 13.5937L14.8504 20.0946C14.9108 20.1912 14.8746 20.2879 14.7779 20.2879H12.6754C12.5425 20.2879 12.4821 20.2517 12.4217 20.1308C11.6483 18.5358 10.8629 16.9408 10.0533 15.225H10.0292C9.30417 16.8442 8.50667 18.5479 7.73333 20.1429C7.67292 20.2396 7.6125 20.2758 7.51583 20.2758H5.52208C5.40125 20.2758 5.38917 20.1792 5.44958 20.1067L8.76042 13.7992L5.55833 7.41915C5.48583 7.32249 5.55833 7.24999 5.63083 7.24999H7.70917C7.83 7.24999 7.87833 7.27415 7.92667 7.3829C8.68792 8.9779 9.46125 10.6212 10.1863 12.2283H10.2104C10.9113 10.6333 11.6846 8.9779 12.4338 7.39499C12.4942 7.29832 12.5304 7.2379 12.6513 7.2379H14.5967C14.6933 7.2379 14.7296 7.3104 14.6692 7.40707L11.4671 13.5937ZM15.4425 15.5633C15.4425 12.7479 17.3154 10.5487 20.2879 10.5487C20.5417 10.5487 20.6746 10.5487 20.9163 10.5729V7.37082C20.9163 7.29832 20.9767 7.24999 21.0371 7.24999H22.9463C23.0429 7.24999 23.0671 7.28624 23.0671 7.34665V18.4392C23.0671 18.7654 23.0671 19.1762 23.1275 19.6233C23.1275 19.6958 23.1033 19.72 23.0308 19.7562C22.0158 20.2396 20.9525 20.4571 19.9375 20.4571C17.3154 20.4692 15.4425 18.85 15.4425 15.5633ZM20.9163 12.47C20.7471 12.3975 20.5054 12.3492 20.2154 12.3492C18.6929 12.3492 17.6296 13.5212 17.6296 15.4667C17.6296 17.69 18.7171 18.5842 20.0825 18.5842C20.3725 18.5842 20.6867 18.5479 20.9163 18.4512V12.47Z" fill="#BD96ED"/>
</svg>
